<?xml version="1.0" standalone="no"?><!DOCTYPE svg PUBLIC "-//W3C//DTD SVG 1.1//EN" "http://www.w3.org/Graphics/SVG/1.1/DTD/svg11.dtd"><svg t="1629311313239" class="icon" viewBox="0 0 1024 1024" version="1.1" xmlns="http://www.w3.org/2000/svg" p-id="23793" width="32" height="32" xmlns:xlink="http://www.w3.org/1999/xlink"><defs><style type="text/css"></style></defs><path d="M651.15 135.78H380.52a227.538 227.538 0 0 0-17.03 19.62c-60.39 78.34-85.67 158.26-87.32 256.15-1.96 115.99-38.79 239.55 88.89 293.64 10.44 4.41 84.83 20.48 128.51 27.09-0.02 0.98 0.01 1.58 0.01 1.6-0.05 1.6 6.12 1.58 15.96 0.51 9.85 1.07 16.01 1.08 15.97-0.51 0-0.02 0-0.62-0.01-1.6 43.68-6.61 117.99-22.68 128.42-27.09 127.69-54.09 90.68-177.65 88.72-293.64-1.81-107.91-11.23-209.88-91.49-275.77z" fill="#A36B29" p-id="23794"></path><path d="M761.59 786.7c-222.6 1.08-159.79-249.43-146.25-270.51H411.6c13.56 21.09 83.96 257.07-140.43 270.51-100.81 6.03-135.55 80.91-135.55 137.14h761.51c0-56.23-34.61-137.63-135.54-137.14z" fill="#DB9566" p-id="23795"></path><path d="M350.09 423.06c0.68 0.97 1.37 1.96 2.06 2.94-14.13-10.22-33.26-26.36-48.11-6.85-15.09 19.87-8.18 68.28 3.68 88.13 11.76 19.66 56.74 35.45 52.05-3.55 0-0.1-9.68-80.67-9.68-80.67zM678.11 423.06c-0.69 0.97-1.37 1.96-2.05 2.94 14.12-10.22 33.23-26.36 48.11-6.85 15.09 19.87 8.19 68.28-3.69 88.13-11.76 19.66-56.73 35.45-52.04-3.55 0.01-0.1 9.67-80.67 9.67-80.67z" fill="#DB9566" p-id="23796"></path><path d="M695.54 342.18c-19.73-96.9-94.07-170.04-181.53-165.17-87.43-4.87-162.98 68.26-182.74 165.15-19.69 96.63 12.45 235.9 90.19 303.39 97.76 84.87 198.69 34.7 255.46-91.46 27.75-61.67 32.09-145.84 18.62-211.91z" fill="#EFA675" p-id="23797"></path><path d="M513.04 537.8c0.17-0.01 0.08-0.01 0-0.03-0.08 0.01-0.15 0.01 0 0.03zM535.18 489.11c-5.92-21.23-2.13-36.76-4.21-58.96-3.25-34.33-27.07-37.82-35.03-1.72-5.46 24.73 1.7 36.58-5.03 60.68-2.99 10.69-23.88 23.93-21.46 35.96 2.56 12.73 19.41 3.94 25.64 3.31 9.27-0.94 10.09 8.26 17.96 9.31 7.87-1.05 8.7-10.25 17.98-9.31 6.22 0.63 23.05 9.42 25.62-3.31 2.42-12.02-18.48-25.26-21.47-35.96zM513.04 537.76c0.08-0.01 0.17-0.03 0-0.06-0.17 0.03-0.08 0.06 0 0.06z" fill="#E2894D" p-id="23798"></path><path d="M592.95 135.78H424.93c-150.27 57.04-100.37 272.03-100.37 272.03s14.9-147.02 178.9-143.87c135.59 2.61 182.92 53.62 198.32 146.03 0 0.01 43.47-216.87-108.83-274.19z" fill="#CC8B34" p-id="23799"></path><path d="M443.53 427.95c0 12.19-9.89 22.07-22.07 22.07-12.19 0-22.08-9.89-22.08-22.07 0-12.19 9.89-22.08 22.08-22.08 12.19 0 22.07 9.88 22.07 22.08zM626.46 427.95c0 12.19-9.88 22.07-22.07 22.07s-22.08-9.89-22.08-22.07c0-12.19 9.89-22.08 22.08-22.08 12.18 0 22.07 9.88 22.07 22.08z" fill="#351F21" p-id="23800"></path><path d="M434.72 135.78c-11.98 17.99-19.22 39.45-24.27 60.47-9.35 38.9-11.03 79.22-11.08 119.14-0.01 6.65 6.3 6.65 6.31 0 0.05-33.26 1.77-70.77 8.35-105.71 4.75-25.27 12.72-52.62 28.2-73.89h-7.51zM463.67 135.78h-6.45c-13.77 55.18-17.45 112.39-5.7 168.55 0.84 3.98 6.91 2.23 6.09-1.73-11.63-55.56-7.72-112.26 6.06-166.82z" fill="#A36B29" p-id="23801"></path><path d="M401.16 168.26c9.17-11.19 20.62-20.51 28.48-32.48h-7.22c-10.65 15.62-27.15 28.23-36.68 44.57-11.88 20.37-19.67 43.03-24.93 65.94-10.68 46.56-7.44 96.2 7.14 141.5 1.25 3.86 7.33 2.2 6.08-1.68-15.47-48.04-17.06-99.01-4.79-147.96 6.03-24.04 16.04-50.51 31.92-69.89zM568.22 135.78C600.84 180.8 598.98 245 587.14 297.8c-0.89 3.96 5.2 5.64 6.09 1.67 11.9-53.09 13.85-117.42-17.16-163.7h-7.85z" fill="#A36B29" p-id="23802"></path><path d="M587.02 135.78c39.1 54.04 37.78 123.83 26.94 188.83-0.67 3.97 5.42 5.68 6.08 1.67 10.92-65.5 12.27-135.47-25.25-190.51h-7.77z" fill="#A36B29" p-id="23803"></path><path d="M376.85 374.87s39.76-31.7 87.26-13.55l-0.75-25.41c0.01 0-70.97-4.95-86.51 38.96zM653.35 374.87s-39.76-31.7-87.26-13.55l0.75-25.41s70.97-4.95 86.51 38.96z" fill="#A36B29" p-id="23804"></path><path d="M701.47 920.7h195.66c0-48.4-34.61-137.09-135.54-136.6-15.18 0.07-28.24-1.07-39.88-3.22 1.52 31.64-20.86 124.85-20.24 139.82zM312.67 777.29c-11.31 3.45-24.42 5.8-41.5 6.82-100.81 6.03-135.55 88.2-135.55 136.6h209.1c-0.63-14.98-30.73-110.52-32.05-143.42z" fill="#351F21" p-id="23805"></path><path d="M353.44 757.88l90.58 119.59 65.79-49.49z" fill="#FFFFFF" p-id="23806"></path><path d="M662.81 757.88l-77.28 119.59-79.09-49.49z" fill="#FFFFFF" p-id="23807"></path><path d="M455.27 548.26s66.43 37.28 120.54 0.4c0 0-2.35 67.36-53.79 67.87-63.24 0.64-66.75-68.27-66.75-68.27z" fill="#EA4942" p-id="23808"></path><path d="M471.22 568.88s45.33 24.11 90.68 1.22c0 0-12.62 30.65-42.58 30.65-29.97 0.01-48.1-31.87-48.1-31.87z" fill="#FFCACA" p-id="23809"></path><path d="M656.23 546.64c14.96-18.86 12.33-53.53-32.64-49.59-29.07 2.55-32.4 31.43-13.91 49.63 18.46 18.17 36.49 12.65 46.55-0.04zM433.58 546.64c14.97-18.86 12.33-53.53-32.65-49.59-29.08 2.55-32.4 31.43-13.91 49.63 18.47 18.17 36.49 12.65 46.56-0.04z" fill="#EF8467" p-id="23810"></path><path d="M603.71 362.39c-34.15 0-62.37 25.96-65.95 59.21-15.28-9.72-34.9-9.06-49.68 1.26-2.99-33.84-31.44-60.46-66.03-60.46-36.58 0-66.33 29.76-66.33 66.33s29.75 66.33 66.33 66.33c32.72 0 59.9-23.83 65.28-55.04 13.33-16.09 35.93-18.24 50.68-2.58 4.28 32.46 32.07 57.62 65.7 57.62 36.57 0 66.32-29.75 66.32-66.33s-29.75-66.34-66.32-66.34zM422.05 482.94c-29.9 0-54.22-24.31-54.22-54.21 0-29.89 24.32-54.23 54.22-54.23 29.88 0 54.22 24.33 54.22 54.23 0 29.89-24.34 54.21-54.22 54.21z m181.66 0c-29.9 0-54.23-24.31-54.23-54.21 0-29.89 24.33-54.23 54.23-54.23 29.89 0 54.22 24.33 54.22 54.23 0 29.89-24.33 54.21-54.22 54.21z" fill="#351F21" p-id="23811"></path><path d="M733.38 143.68H287.7l6.65 133.54h432.38z" fill="#351F21" p-id="23812"></path><path d="M174.66 101.51h667.7v42.17h-667.7z" fill="#513438" p-id="23813"></path><path d="M274.4 772.61l29.93 151.23h76.5l-46.57-163.75zM746.69 772.61l-29.94 151.23h-76.5l46.56-163.75z" fill="#513438" p-id="23814"></path></svg>