<?xml version="1.0" standalone="no"?><!DOCTYPE svg PUBLIC "-//W3C//DTD SVG 1.1//EN" "http://www.w3.org/Graphics/SVG/1.1/DTD/svg11.dtd"><svg t="1630755394179" class="icon" viewBox="0 0 1024 1024" version="1.1" xmlns="http://www.w3.org/2000/svg" p-id="7013" xmlns:xlink="http://www.w3.org/1999/xlink" width="32" height="32"><defs><style type="text/css"></style></defs><path d="M341.333333 234.666667C281.6 234.666667 234.666667 281.6 234.666667 341.333333c0 247.466667 200.533333 448 448 448 12.8 0 25.6 0 34.133333-4.266666 12.8-4.266667 21.333333 0 25.6 12.8 4.266667 12.8 0 21.333333-12.8 25.6-17.066667 4.266667-34.133333 8.533333-51.2 8.533333C409.6 832 192 614.4 192 341.333333c0-81.066667 68.266667-149.333333 149.333333-149.333333 8.533333 0 21.333333 0 29.866667 4.266667 8.533333 0 12.8 4.266667 12.8 8.533333l93.866667 166.4c4.266667 4.266667 4.266667 12.8 0 17.066667-8.533333 29.866667-25.6 55.466667-51.2 72.533333 25.6 59.733333 72.533333 106.666667 132.266666 132.266667 8.533333-12.8 21.333333-25.6 38.4-34.133334 4.266667-4.266667 12.8-4.266667 17.066667-4.266666l183.466667 51.2c4.266667 0 12.8 4.266667 12.8 12.8 8.533333 21.333333 17.066667 42.666667 17.066666 68.266666 0 17.066667-4.266667 34.133333-8.533333 51.2-4.266667 12.8-17.066667 17.066667-25.6 12.8-12.8-4.266667-17.066667-17.066667-12.8-25.6 4.266667-12.8 4.266667-21.333333 4.266667-34.133333 0-12.8-4.266667-25.6-8.533334-38.4l-166.4-42.666667c-12.8 8.533333-21.333333 17.066667-25.6 29.866667-4.266667 8.533333-17.066667 12.8-25.6 8.533333-81.066667-34.133333-145.066667-98.133333-179.2-179.2-4.266667-8.533333 0-21.333333 8.533334-25.6 21.333333-12.8 34.133333-29.866667 46.933333-51.2l-85.333333-149.333333c0-8.533333-4.266667-8.533333-8.533334-8.533333z" p-id="7014" fill="#ffffff"></path></svg>